# xmcd CD database file
#
# Track frame offsets:
#	150
#	18411
#	31512
#	49889
#	68507
#	83814
#	101276
#	111883
#	128528
#	144025
#	158101
#	171339
#	185964
#
# Disc length: 2767 seconds
#
# Revision: 3
# Processed by: cddbd v1.4PL0 Copyright (c) Steve Scherf et al.
# Submitted via: CDex 1.50Beta6
#
DISCID=9c0acd0d
DTITLE=Alan Jackson - Drive
DYEAR=2002
DGENRE=Country
TTITLE0=Drive (For Daddy Gene)
TTITLE1=A Little Bluer Than That
TTITLE2=Bring On The Night
TTITLE3=Work In Progress
TTITLE4=The Sounds
TTITLE5=Designated Drinker
TTITLE6=Where Were You (When The World Stopped Turning)
TTITLE7=That'd Be Alright
TTITLE8=Once In A Lifetime Love
TTITLE9=When Love Comes Around
TTITLE10=I Slipped And Fell In Love
TTITLE11=First Love
TTITLE12=Where Were You (When The World Stopped Turning) Live
EXTD=YEAR: 2002
EXTT0=
EXTT1=
EXTT2=
EXTT3=
EXTT4=
EXTT5=
EXTT6=
EXTT7=
EXTT8=
EXTT9=
EXTT10=
EXTT11=
EXTT12=
PLAYORDER=
